<?xml version="1.0" standalone="no"?>
<!DOCTYPE svg PUBLIC "-//W3C//DTD SVG 20010904//EN"
 "http://www.w3.org/TR/2001/REC-SVG-20010904/DTD/svg10.dtd">
<svg version="1.0" xmlns="http://www.w3.org/2000/svg"
 width="16.000000pt" height="16.000000pt" viewBox="0 0 16.000000 16.000000"
 preserveAspectRatio="xMidYMid meet">
<metadata>
Created by potrace 1.11, written by Peter Selinger 2001-2013
</metadata>
<g transform="translate(0.000000,16.000000) scale(0.006400,-0.006400)"
fill="#000000" stroke="none">
<path d="M1040 2179 c-103 -11 -305 -52 -380 -77 -59 -20 -62 -29 -39 -89 8
-22 14 -23 93 -23 59 0 87 -4 95 -14 9 -10 11 -187 9 -672 -3 -726 -1 -696
-66 -741 -19 -12 -58 -29 -88 -38 l-54 -16 15 -36 c8 -19 15 -37 15 -39 0 -2
119 -4 265 -4 259 0 265 0 276 21 9 18 6 28 -19 63 -16 22 -39 61 -51 85 -48
93 -51 135 -51 777 0 591 0 602 20 627 26 33 75 47 166 47 181 0 313 -92 376
-265 29 -81 32 -262 4 -345 -40 -119 -116 -201 -219 -237 -54 -18 -176 -24
-234 -11 -38 9 -63 -10 -63 -46 0 -106 338 -118 523 -19 114 61 207 185 244
326 22 85 22 244 -1 322 -91 310 -381 450 -836 404z"/>
</g>
</svg>
